<mxfile modified="2020-08-11T06:50:00.373Z" host="app.diagrams.net" agent="5.0 (Windows NT 10.0; Win64; x64) AppleWebKit/537.36 (KHTML, like Gecko) Chrome/84.0.4147.105 Safari/537.36" etag="EcsEac_rDNhcbC-msHaM" version="13.6.2" type="github">
  <diagram id="FWBJlW_Da_JbNAGu2uzy" name="Page-2">
    <mxGraphModel dx="1422" dy="832" grid="1" gridSize="10" guides="1" tooltips="1" connect="1" arrows="1" fold="1" page="1" pageScale="1" pageWidth="1169" pageHeight="827" math="0" shadow="0">
      <root>
        <mxCell id="NtXlO6-Ve0_G-bofITan-0" />
        <mxCell id="NtXlO6-Ve0_G-bofITan-1" parent="NtXlO6-Ve0_G-bofITan-0" />
        <mxCell id="NtXlO6-Ve0_G-bofITan-2" value="Architecting on AWS Day 1" style="text;html=1;resizable=0;points=[];autosize=1;align=left;verticalAlign=top;spacingTop=-4;fontSize=30;fontStyle=1" vertex="1" parent="NtXlO6-Ve0_G-bofITan-1">
          <mxGeometry x="56.5" y="64.5" width="400" height="40" as="geometry" />
        </mxCell>
      </root>
    </mxGraphModel>
  </diagram>
</mxfile>
